<svg xmlns="http://www.w3.org/2000/svg" viewBox="0 0 512 512"><defs><mask id="a" x="176.333" y="190.167" width="165.333" height="65" maskUnits="userSpaceOnUse"><circle cx="309.667" cy="223.167" r="32" fill="#fff"/><circle cx="208.333" cy="222.167" r="32" fill="#fff"/></mask></defs><title>sun-hover</title><g fill="#fff"><circle cx="256" cy="255.989" r="154.629"/><path d="M279.186 498.567l-4.408-46.651q2.545-.242 5.067-.545l5.612 46.523q-3.121.376-6.271.673zm-52.4-.643q-3.144-.376-6.262-.831l6.78-46.367q2.512.368 5.043.67zm109.793-11.911l-15.493-44.225q2.408-.844 4.785-1.746l16.635 43.806q-2.94 1.12-5.924 2.165zm-166.879-2.083q-2.963-1.123-5.89-2.32l17.744-43.371q2.361.966 4.752 1.872zm219.574-23.919l-25.674-39.201q2.133-1.4 4.228-2.846l26.666 38.536q-2.584 1.787-5.217 3.511zm-271.6-3.4q-2.6-1.794-5.147-3.654l27.605-37.857q2.065 1.5 4.162 2.954zm316.489-34.392l-34.244-31.987q1.738-1.86 3.425-3.765l35.072 31.079q-2.097 2.368-4.254 4.677zm-360.449-4.526q-2.095-2.361-4.13-4.777l35.848-30.179q1.636 1.943 3.324 3.843zm395.076-42.9l-40.89-22.887q1.241-2.22 2.425-4.473l41.485 21.79q-1.472 2.807-3.02 5.572zm-428.5-5.376q-1.461-2.773-2.854-5.588l42-20.785q1.134 2.289 2.319 4.543zm450.775-49.044l-45.209-12.335q.673-2.457 1.281-4.939l45.509 11.175q-.746 3.065-1.579 6.1zm-471.655-5.863q-.752-3.055-1.431-6.138l45.772-10.042q.546 2.5 1.157 4.969zm480.18-52.21l-46.845-1.223q.066-2.537.066-5.089v-.448h46.86v.448q-.001 3.165-.081 6.312zm-487.253-5.733l-.007-.578q0-3.041.075-6.065l46.845 1.176q-.06 2.36-.06 4.733v.38h-26.028zm435.872-43.115q-.549-2.5-1.162-4.967l45.487-11.259q.755 3.053 1.437 6.137zm-383.4-4.38l-45.52-11.127q.75-3.068 1.578-6.106l45.216 12.3q-.665 2.453-1.272 4.934zm367.667-40.32q-1.134-2.287-2.325-4.54l41.442-21.876q1.463 2.772 2.859 5.587zm-350.9-4.03l-41.504-21.745q1.469-2.807 3.015-5.575l40.913 22.845q-1.24 2.221-2.42 4.475zm324.856-35.642q-1.634-1.937-3.319-3.828l35-31.16q2.106 2.364 4.146 4.784zm-297.91-3.423l-35.1-31.043q2.092-2.363 4.241-4.672l34.288 31.941q-1.739 1.866-3.425 3.775zm263.178-28.898q-2.062-1.5-4.164-2.951l26.593-38.582q2.6 1.792 5.149 3.648zm-227.7-2.627l-26.694-38.515q2.581-1.789 5.211-3.515l25.711 39.176q-2.133 1.4-4.228 2.854zm186.263-20.467q-2.367-.965-4.761-1.87l16.566-43.834q2.96 1.119 5.885 2.311zm-144.326-1.657l-16.675-43.792q2.941-1.12 5.918-2.167l15.548 44.206q-2.411.845-4.791 1.753zm98.552-10.785q-2.512-.365-5.043-.664l5.517-46.534q3.141.372 6.262.826zm-52.536-.593l-5.653-46.517q3.122-.379 6.271-.68l4.449 46.647q-2.545.243-5.067.55z" stroke="#fff" stroke-miterlimit="10" stroke-width="4"/></g><path d="M272.812 225.312a36.254 36.254 0 1 1 36.254 36.253 36.3 36.3 0 0 1-36.254-36.253zm5.623 0a30.631 30.631 0 1 0 30.631-30.631 30.665 30.665 0 0 0-30.631 30.631zM171.65 224.455a36.254 36.254 0 1 1 36.25 36.253 36.3 36.3 0 0 1-36.25-36.253zm5.623 0a30.631 30.631 0 1 0 30.627-30.631 30.665 30.665 0 0 0-30.627 30.631zM298.007 291.506l-44.801-1.944.245-5.617 34.228 1.484-28.628-46.654 4.792-2.941 34.164 55.672zM260.44 335.26c-41.522 0-53.786-29.358-54.288-30.607l5.215-2.1c.45 1.106 11.482 27.086 49.073 27.086 32.412 0 46.014-24.693 46.148-24.942l4.957 2.654c-.61 1.139-15.362 27.909-51.105 27.909zM200.961 166.255l-5.026-2.523c.276-.554 6.945-13.559 21.38-13.559 11.852 0 17.609 9.186 19 14.044l-5.407 1.545c-.117-.394-3.075-9.966-13.589-9.966-10.919.004-16.142 10.032-16.358 10.459zM290.143 166.247l-5.03-2.515c.276-.554 6.947-13.559 21.38-13.559 11.852 0 17.609 9.186 19 14.044l-5.407 1.545c-.117-.394-3.075-9.966-13.589-9.966-10.997.004-16.303 10.347-16.354 10.451z" fill="#262626"/><g fill="#262626" mask="url(#a)"><circle cx="309.117" cy="225.147" r="22.5"/><circle cx="208.099" cy="224.147" r="22.5"/></g></svg>